<?xml version="1.0" standalone="no"?><!DOCTYPE svg PUBLIC "-//W3C//DTD SVG 1.1//EN" "http://www.w3.org/Graphics/SVG/1.1/DTD/svg11.dtd"><svg t="1746502115730" class="icon" viewBox="0 0 1024 1024" version="1.1" xmlns="http://www.w3.org/2000/svg" p-id="12905" xmlns:xlink="http://www.w3.org/1999/xlink" width="200" height="200"><path d="M384 0H85.357714A85.577143 85.577143 0 0 0 0 85.357714V384a85.577143 85.577143 0 0 0 85.357714 85.357714H384A85.577143 85.577143 0 0 0 469.357714 384V85.357714A85.577143 85.577143 0 0 0 384 0z m0 384H85.357714V85.357714H384V384z m3.145143 42.642286V384v42.642286zM938.642286 0H640a85.577143 85.577143 0 0 0-85.357714 85.357714V384A85.577143 85.577143 0 0 0 640 469.357714h298.642286A85.577143 85.577143 0 0 0 1024 384V85.357714A85.577143 85.577143 0 0 0 938.642286 0z m0 384H640V85.357714h298.642286V384zM384 554.642286H85.357714A85.577143 85.577143 0 0 0 0 640v298.642286A85.577143 85.577143 0 0 0 85.357714 1024H384a85.577143 85.577143 0 0 0 85.357714-85.357714V640A85.577143 85.577143 0 0 0 384 554.642286z m0 384H85.357714V640H384v298.642286z m3.145143 42.715428v-42.715428 42.715428z m551.497143-426.715428H640A85.577143 85.577143 0 0 0 554.642286 640v298.642286A85.577143 85.577143 0 0 0 640 1024h298.642286A85.577143 85.577143 0 0 0 1024 938.642286V640a85.577143 85.577143 0 0 0-85.357714-85.357714z m0 384H640V640h298.642286v298.642286z" fill="#666666" p-id="12906"></path></svg>