<?xml version="1.0" standalone="no"?><!DOCTYPE svg PUBLIC "-//W3C//DTD SVG 1.1//EN" "http://www.w3.org/Graphics/SVG/1.1/DTD/svg11.dtd"><svg t="1746502128703" class="icon" viewBox="0 0 1024 1024" version="1.1" xmlns="http://www.w3.org/2000/svg" p-id="13915" xmlns:xlink="http://www.w3.org/1999/xlink" width="200" height="200"><path d="M737.194 176.639l111.184 111.184-111.184 111.183-111.182-111.183 111.182-111.184m-393.371 28.246v167.676H176.147V204.885h167.676m479.03 478.028v167.676H655.176V682.913h167.677m-478.03-2v167.676H177.147V680.913h167.676M737.194 63.599c-27.837 0-55.675 10.616-76.907 31.876L544.848 210.889c-42.465 42.492-42.465 111.375 0 153.867L660.287 480.17c21.232 21.26 49.07 31.876 76.907 31.876 27.892 0 55.729-10.616 76.961-31.876l115.386-115.414c42.521-42.492 42.521-111.375 0-153.867L814.155 95.475c-21.231-21.26-49.069-31.876-76.961-31.876zM343.823 93.101H176.147c-61.731 0-111.784 50.052-111.784 111.784v167.676c0 61.732 50.053 111.784 111.784 111.784h167.676c61.732 0 111.784-50.052 111.784-111.784V204.885c0-61.733-50.051-111.784-111.784-111.784z m479.03 478.028H655.176c-61.732 0-111.784 50.052-111.784 111.784v167.676c0 61.732 50.052 111.784 111.784 111.784h167.677c61.732 0 111.784-50.052 111.784-111.784V682.913c0-61.732-50.052-111.784-111.784-111.784z m-478.03-2H177.147c-61.731 0-111.784 50.052-111.784 111.784v167.676c0 61.732 50.053 111.784 111.784 111.784h167.676c61.732 0 111.784-50.052 111.784-111.784V680.913c0-61.732-50.051-111.784-111.784-111.784z" fill="" p-id="13916"></path></svg>