<?xml version="1.0" standalone="no"?><!DOCTYPE svg PUBLIC "-//W3C//DTD SVG 1.1//EN" "http://www.w3.org/Graphics/SVG/1.1/DTD/svg11.dtd"><svg t="1746515374568" class="icon" viewBox="0 0 1024 1024" version="1.1" xmlns="http://www.w3.org/2000/svg" p-id="14899" xmlns:xlink="http://www.w3.org/1999/xlink" width="200" height="200"><path d="M814.545455 279.272727h-605.09091c-13.963636 0-23.272727-9.309091-23.272727-23.272727s9.309091-23.272727 23.272727-23.272727h605.09091c13.963636 0 23.272727 9.309091 23.272727 23.272727s-9.309091 23.272727-23.272727 23.272727zM814.545455 451.490909H512c-13.963636 0-23.272727-9.309091-23.272727-23.272727s9.309091-23.272727 23.272727-23.272727h302.545455c13.963636 0 23.272727 9.309091 23.272727 23.272727s-9.309091 23.272727-23.272727 23.272727zM814.545455 619.054545H512c-13.963636 0-23.272727-9.309091-23.272727-23.272727s9.309091-23.272727 23.272727-23.272727h302.545455c13.963636 0 23.272727 9.309091 23.272727 23.272727s-9.309091 23.272727-23.272727 23.272727zM814.545455 791.272727h-605.09091c-13.963636 0-23.272727-13.963636-23.272727-23.272727s9.309091-23.272727 23.272727-23.272727h605.09091c13.963636 0 23.272727 9.309091 23.272727 23.272727s-9.309091 23.272727-23.272727 23.272727zM372.363636 493.381818l-153.6-93.090909c-9.309091-4.654545-13.963636-4.654545-23.272727 0-4.654545 0-9.309091 9.309091-9.309091 18.618182v186.181818c0 9.309091 4.654545 13.963636 13.963637 18.618182 4.654545 0 9.309091 4.654545 9.30909 4.654545 4.654545 0 9.309091 0 13.963637-4.654545l153.6-93.090909c4.654545-4.654545 9.309091-9.309091 9.309091-18.618182s-4.654545-13.963636-13.963637-18.618182z" p-id="14900"></path></svg>